<?xml version="1.0" encoding="UTF-8" standalone="no"?>
<!DOCTYPE svg PUBLIC "-//W3C//DTD SVG 1.1//EN"
 "http://www.w3.org/Graphics/SVG/1.1/DTD/svg11.dtd">
<!-- Generated by graphviz version 2.47.3 (20210619.1520)
 -->
<!-- Title: g Pages: 1 -->
<svg width="365pt" height="350pt"
 viewBox="0.00 0.00 364.56 350.13" xmlns="http://www.w3.org/2000/svg" xmlns:xlink="http://www.w3.org/1999/xlink">
<g id="graph0" class="graph" transform="scale(1 1) rotate(0) translate(4 346.13)">
<title>g</title>
<!-- w -->
<g id="node1" class="node">
<title>w</title>
<ellipse fill="none" stroke="black" cx="167.83" cy="-165.89" rx="27" ry="18"/>
<text text-anchor="middle" x="167.83" y="-162.19" font-family="Hack" font-size="14.00">w</text>
</g>
<!-- 1 -->
<g id="node2" class="node">
<title>1</title>
<ellipse fill="none" stroke="black" cx="105.74" cy="-109.72" rx="27" ry="18"/>
<text text-anchor="middle" x="105.74" y="-106.02" font-family="Hack" font-size="14.00">1</text>
</g>
<!-- w&#45;&#45;1 -->
<g id="edge1" class="edge">
<title>w&#45;&#45;1</title>
<path fill="none" stroke="black" d="M151.51,-151.13C142.46,-142.94 131.23,-132.78 122.16,-124.58"/>
</g>
<!-- 2 -->
<g id="node3" class="node">
<title>2</title>
<ellipse fill="none" stroke="black" cx="201.93" cy="-89.38" rx="27" ry="18"/>
<text text-anchor="middle" x="201.93" y="-85.68" font-family="Hack" font-size="14.00">2</text>
</g>
<!-- w&#45;&#45;2 -->
<g id="edge2" class="edge">
<title>w&#45;&#45;2</title>
<path fill="none" stroke="black" d="M175.56,-148.53C181.15,-136.01 188.65,-119.18 194.22,-106.68"/>
</g>
<!-- 3 -->
<g id="node4" class="node">
<title>3</title>
<ellipse fill="none" stroke="black" cx="95.35" cy="-207.86" rx="27" ry="18"/>
<text text-anchor="middle" x="95.35" y="-204.16" font-family="Hack" font-size="14.00">3</text>
</g>
<!-- w&#45;&#45;3 -->
<g id="edge3" class="edge">
<title>w&#45;&#45;3</title>
<path fill="none" stroke="black" d="M147.25,-177.8C137.46,-183.48 125.78,-190.24 115.98,-195.92"/>
</g>
<!-- 4 -->
<g id="node5" class="node">
<title>4</title>
<ellipse fill="none" stroke="black" cx="251.04" cy="-174.52" rx="27" ry="18"/>
<text text-anchor="middle" x="251.04" y="-170.82" font-family="Hack" font-size="14.00">4</text>
</g>
<!-- w&#45;&#45;4 -->
<g id="edge4" class="edge">
<title>w&#45;&#45;4</title>
<path fill="none" stroke="black" d="M194.61,-168.67C204.12,-169.65 214.81,-170.76 224.3,-171.75"/>
</g>
<!-- 5 -->
<g id="node6" class="node">
<title>5</title>
<ellipse fill="none" stroke="black" cx="185.13" cy="-247.83" rx="27" ry="18"/>
<text text-anchor="middle" x="185.13" y="-244.13" font-family="Hack" font-size="14.00">5</text>
</g>
<!-- w&#45;&#45;5 -->
<g id="edge5" class="edge">
<title>w&#45;&#45;5</title>
<path fill="none" stroke="black" d="M171.67,-184.07C174.55,-197.75 178.49,-216.38 181.36,-229.97"/>
</g>
<!-- 6 -->
<g id="node7" class="node">
<title>6</title>
<text text-anchor="middle" x="48.05" y="-52.33" font-family="Hack" font-size="14.00">...</text>
</g>
<!-- 1&#45;&#45;6 -->
<g id="edge6" class="edge">
<title>1&#45;&#45;6</title>
<path fill="none" stroke="black" d="M89.97,-95.05C83.03,-88.6 74.81,-80.95 67.5,-74.14"/>
</g>
<!-- 7 -->
<g id="node8" class="node">
<title>7</title>
<text text-anchor="middle" x="235.44" y="-14.3" font-family="Hack" font-size="14.00">...</text>
</g>
<!-- 2&#45;&#45;7 -->
<g id="edge7" class="edge">
<title>2&#45;&#45;7</title>
<path fill="none" stroke="black" d="M210.04,-72.1C215.16,-61.21 221.75,-47.17 226.94,-36.12"/>
</g>
<!-- 8 -->
<g id="node9" class="node">
<title>8</title>
<text text-anchor="middle" x="27" y="-243.34" font-family="Hack" font-size="14.00">...</text>
</g>
<!-- 3&#45;&#45;8 -->
<g id="edge8" class="edge">
<title>3&#45;&#45;8</title>
<path fill="none" stroke="black" d="M74.84,-219.62C68.32,-223.36 60.99,-227.56 54.07,-231.52"/>
</g>
<!-- 9 -->
<g id="node10" class="node">
<title>9</title>
<text text-anchor="middle" x="329.56" y="-178.27" font-family="Hack" font-size="14.00">...</text>
</g>
<!-- 4&#45;&#45;9 -->
<g id="edge9" class="edge">
<title>4&#45;&#45;9</title>
<path fill="none" stroke="black" d="M278.06,-177.09C285.96,-177.84 294.59,-178.65 302.49,-179.4"/>
</g>
<!-- 10 -->
<g id="node11" class="node">
<title>10</title>
<text text-anchor="middle" x="204.94" y="-320.43" font-family="Hack" font-size="14.00">...</text>
</g>
<!-- 5&#45;&#45;10 -->
<g id="edge10" class="edge">
<title>5&#45;&#45;10</title>
<path fill="none" stroke="black" d="M189.83,-265.91C192.96,-277.98 197.07,-293.81 200.21,-305.91"/>
</g>
</g>
</svg>
