<?xml version="1.0" encoding="UTF-8" standalone="no"?>
<!DOCTYPE svg PUBLIC "-//W3C//DTD SVG 1.1//EN"
 "http://www.w3.org/Graphics/SVG/1.1/DTD/svg11.dtd">
<!-- Generated by graphviz version 2.47.3 (20210619.1520)
 -->
<!-- Title: g Pages: 1 -->
<svg width="216pt" height="194pt"
 viewBox="0.00 0.00 216.13 193.56" xmlns="http://www.w3.org/2000/svg" xmlns:xlink="http://www.w3.org/1999/xlink">
<g id="graph0" class="graph" transform="scale(1 1) rotate(0) translate(4 189.56)">
<title>g</title>
<!-- w -->
<g id="node1" class="node">
<title>w</title>
<ellipse fill="none" stroke="black" cx="105.34" cy="-86.38" rx="27" ry="18"/>
<text text-anchor="middle" x="105.34" y="-82.68" font-family="Hack" font-size="14.00">w</text>
</g>
<!-- 6 -->
<g id="node2" class="node">
<title>6</title>
<text text-anchor="middle" x="157.2" y="-20.13" font-family="Hack" font-size="14.00">...</text>
</g>
<!-- w&#45;&#45;6 -->
<g id="edge1" class="edge">
<title>w&#45;&#45;6</title>
<path fill="none" stroke="black" d="M118.43,-70.6C125.63,-61.91 134.6,-51.09 142.1,-42.05"/>
</g>
<!-- 7 -->
<g id="node3" class="node">
<title>7</title>
<text text-anchor="middle" x="61.58" y="-14.3" font-family="Hack" font-size="14.00">...</text>
</g>
<!-- w&#45;&#45;7 -->
<g id="edge2" class="edge">
<title>w&#45;&#45;7</title>
<path fill="none" stroke="black" d="M94.52,-69.48C88.04,-59.35 79.81,-46.48 73.19,-36.14"/>
</g>
<!-- 8 -->
<g id="node4" class="node">
<title>8</title>
<text text-anchor="middle" x="27" y="-104.02" font-family="Hack" font-size="14.00">...</text>
</g>
<!-- w&#45;&#45;8 -->
<g id="edge3" class="edge">
<title>w&#45;&#45;8</title>
<path fill="none" stroke="black" d="M80.12,-93.25C71.8,-95.52 62.52,-98.05 54.06,-100.35"/>
</g>
<!-- 9 -->
<g id="node5" class="node">
<title>9</title>
<text text-anchor="middle" x="181.13" y="-112.14" font-family="Hack" font-size="14.00">...</text>
</g>
<!-- w&#45;&#45;9 -->
<g id="edge4" class="edge">
<title>w&#45;&#45;9</title>
<path fill="none" stroke="black" d="M128.9,-95.54C136.81,-98.61 145.7,-102.07 153.87,-105.24"/>
</g>
<!-- 10 -->
<g id="node6" class="node">
<title>10</title>
<text text-anchor="middle" x="101.51" y="-163.86" font-family="Hack" font-size="14.00">...</text>
</g>
<!-- w&#45;&#45;10 -->
<g id="edge5" class="edge">
<title>w&#45;&#45;10</title>
<path fill="none" stroke="black" d="M104.49,-104.4C103.86,-117.76 103,-135.9 102.37,-149.32"/>
</g>
</g>
</svg>
